<svg width="282px" height="127px" viewBox="447 916 282 127" version="1.1" xmlns="http://www.w3.org/2000/svg" xmlns:xlink="http://www.w3.org/1999/xlink">
    <!-- Generator: Sketch 3.8.3 (29802) - http://www.bohemiancoding.com/sketch -->
    <desc>Created with Sketch.</desc>
    <defs/>
    <g id="illustration" opacity="0.4" stroke="none" stroke-width="1" fill="none" fill-rule="evenodd" transform="translate(449.000000, 919.000000)">
        <path d="M153.488009,47.4880094 L144.263734,38.2637337" id="Line" stroke="#1D1D1D" stroke-width="3" stroke-linecap="square"/>
        <path d="M144.412522,58.4880094 L153.636798,49.2637337" id="Line" stroke="#1D1D1D" stroke-width="3" stroke-linecap="square"/>
        <path d="M117.159056,48.5 L153.992439,48.5" id="Line" stroke="#1D1D1D" stroke-width="3" stroke-linecap="square"/>
        <polyline id="A" stroke="#212121" stroke-width="3" stroke-linecap="round" stroke-linejoin="round" points="53 120 48.9993277 109.25577 46.2261345 109.25577 42.18 120"/>
        <path d="M44.5,116.5 L51.5,116.5" id="Line" stroke="#222222" stroke-width="3" stroke-linecap="square"/>
        <path d="M231.386,111.373374 L231.386,122 L235.672622,122 C237.681039,122 239,120.726004 239,118.987374 C239,117.608461 238.070732,116.724158 237.111488,116.499335 C237.111488,116.499335 231.803039,116.440945 231.803039,116.440945 C231.857102,116.440945 237.216094,116.462599 237.267295,116.440945 C238.061762,116.10495 238.67026,115.249023 238.67026,114.22113 C238.67026,112.587417 237.456217,111.373374 235.35787,111.373374 L231.386,111.373374 Z" id="B" stroke="#272727" stroke-width="3"/>
        <ellipse id="Oval-79" stroke="#1D1D1D" stroke-width="3" cx="46.6021263" cy="47.3602236" rx="39.6021263" ry="40.3602236"/>
        <path d="M0.5,92.5 L7.08316443,85.9168356" id="Line" stroke="#181818" stroke-width="3" stroke-linecap="square"/>
        <path d="M15,77.5831644 L21.5831644,71" id="Line" stroke="#181818" stroke-width="3" stroke-linecap="square"/>
        <path d="M29,63.5831644 L35.5831644,57" id="Line" stroke="#181818" stroke-width="3" stroke-linecap="square"/>
        <path d="M43,49.5831644 L49.5831644,43" id="Line" stroke="#181818" stroke-width="3" stroke-linecap="square"/>
        <path d="M58,35.5831644 L64.5831644,29" id="Line" stroke="#181818" stroke-width="3" stroke-linecap="square"/>
        <path d="M72,21.5831644 L78.5831644,15" id="Line" stroke="#181818" stroke-width="3" stroke-linecap="square"/>
        <path d="M86,6.58316443 L92.5831644,0" id="Line" stroke="#181818" stroke-width="3" stroke-linecap="square"/>
        <path d="M195.5,2 L195.5,90.2797399" id="Line" stroke="#1D1D1D" stroke-width="3" stroke-linecap="square"/>
        <path d="M271.5,3 L271.5,91.2797399" id="Line" stroke="#1D1D1D" stroke-width="3" stroke-linecap="square"/>
        <path d="M275.458535,8.5 L188,8.5" id="Line" stroke="#1D1D1D" stroke-width="3" stroke-linecap="square"/>
        <path d="M278.169092,84.5 L188,84.5" id="Line" stroke="#1D1D1D" stroke-width="3" stroke-linecap="square"/>
    </g>
</svg>