<svg id="logotype" width="186px" height="250px" viewBox="73 70 186 250" xmlns="http://www.w3.org/2000/svg">
  <g fill="none" fill-rule="evenodd" transform="translate(75.000000, 72.000000)" stroke-opacity="0.200000003">
    <path d="M-9.83075398e-16,4.5 L181.251652,4.5" stroke="#FFFFFF" stroke-width="3" stroke-linecap="square"/>
    <path d="M-9.25247433e-16,235.5 L182.3038,235.5" stroke="#FFFFFF" stroke-width="3" stroke-linecap="square"/>
    <path d="M4.5,0 L4.5,245.722656" stroke="#FFFFFF" stroke-width="3" stroke-linecap="square"/>
    <path d="M174.5,0.566156905 L174.5,245.164286" stroke="#FFFFFF" stroke-width="3" stroke-linecap="square"/>
    <path d="M69.8091806,24.5203035 C73.6618873,30.0715607 77.0983421,35.6207656 80.9510488,40.8313541 C82.8251331,43.5484944 86.0525115,44.3427038 88.2402103,42.1899242 C88.3200395,42.1242532 88.378961,42.048321 88.4549888,41.9805977 C90.8422604,40.2526278 91.1235631,36.8213147 89.2817906,34.1472711 C85.7407977,28.5980662 81.9926291,23.046809 78.4516362,17.8362205 C78.3318925,17.6617818 78.1684328,17.5119696 78.0258807,17.3518964 C77.142058,15.9214986 75.7222396,15.1580724 73.9736011,15.4576967 C72.1014175,15.4576967 70.4345089,16.4776504 69.4974667,18.6283777 C69.4442473,18.7433021 69.4100348,18.8582265 69.3663189,18.9731508 C68.6231475,20.4651153 68.6763669,21.9899153 69.2959932,23.3402766 C69.4347438,23.7507207 69.6039056,24.1467993 69.8091806,24.5203035 M128.434186,50.7989903 C129.057614,52.9517699 131.036237,54.31034 133.223935,54.6510086 C134.160977,54.31034 135.409733,53.9696714 136.451314,53.2903863 C141.554677,49.4404201 146.65614,45.3626575 151.759503,41.1699705 C153.36559,39.8586014 154.099258,38.0793261 153.985216,36.2528496 C153.973812,35.2944625 153.692509,34.360702 153.152712,33.5275004 C153.101393,33.4330983 153.06528,33.3345917 153.008259,33.2422417 C152.569199,32.5711655 151.989487,32.082737 151.337549,31.7359117 C149.607918,30.7077491 147.496247,30.8308823 145.61456,32.1094159 C143.740475,33.467986 141.763754,35.2800969 139.889669,36.6407193 C136.346776,39.3578596 133.223935,41.8492556 129.996557,44.5684481 C128.120572,46.2676869 127.808858,48.7611351 128.434186,50.7989903 M102.713995,37.2071322 C103.449564,37.120939 104.114807,36.9054558 104.705922,36.5586305 C106.574305,35.7869955 107.748934,33.5090304 107.505645,29.9566363 C106.878416,24.0667627 106.254988,17.1569355 105.62966,10.2471082 C105.317946,6.73575846 102.713995,4.69790325 100.216483,5.03651968 C99.0361523,5.17401847 98.0401886,5.73427473 97.2780103,6.55926748 C95.9513259,7.73518997 95.2233601,9.66838192 95.4248337,11.9483992 C96.050162,18.5175578 96.6735896,25.0867165 97.298918,31.6558751 C97.6106318,35.1672248 99.7983306,37.5457487 102.713995,37.2071322 M119.582654,41.0570984 C122.082067,41.0570984 123.747075,40.3778133 124.374304,38.3379059 C127.289969,31.7687472 129.787481,25.1995886 132.391431,18.6283777 C133.140305,16.4571282 132.476963,14.010881 131.070449,12.5907443 C130.988719,12.5004466 130.899387,12.4224622 130.811955,12.3403733 C130.741629,12.2788067 130.675105,12.2131357 130.600978,12.1577257 C130.230342,11.8437359 129.829296,11.5666861 129.371229,11.379934 C127.18543,10.2471082 124.269766,11.0413176 123.02101,13.7584579 C120.207983,20.3296687 117.604032,27.239496 115.10652,33.8086547 C114.47549,35.6946455 114.802409,37.5190698 115.691934,38.8673788 C116.507332,40.1828523 117.949958,41.0570984 119.582654,41.0570984 M69.6451861,200.29596 C70.437116,197.811434 70.7807837,195.488242 70.6740546,193.287201 C70.5139609,189.576546 69.0923294,186.071014 66.3707374,182.86971 C65.6705945,182.109141 64.9576441,181.392362 64.2575013,180.677888 C63.9949477,180.403622 63.7302595,180.124747 63.4591676,179.850481 C62.6971219,179.053036 61.9692294,178.253286 61.3416623,177.398222 C51.0508428,166.459857 40.7600232,156.028537 30.3518016,145.090171 C27.5448264,142.036371 23.5702348,140.381558 19.5935086,140.764147 C13.7426195,141.497059 9.53749306,144.504764 7.35168115,150.619278 C7.22360623,150.941943 7.07845466,151.239257 6.96318723,151.575751 C4.85848943,157.810112 6.26304435,163.661884 10.589842,168.365889 C22.0482778,180.454327 33.8610543,192.538156 45.6716963,204.621984 C46.8307743,205.749009 47.9791793,206.705483 49.1660069,207.48449 C49.2172369,207.521366 49.2684668,207.558242 49.3218314,207.592813 C49.4883288,207.701137 49.6590953,207.788717 49.8255927,207.887822 C50.5150627,208.298068 51.2237439,208.65761 51.9665784,208.929571 C53.3348454,209.438922 54.7991687,209.710883 56.4299893,209.710883 C59.7663408,209.710883 62.7611593,208.6046 65.1540257,206.629426 C67.1157065,205.057583 68.7145084,202.941818 69.6451861,200.29596 M86.3453911,159.280448 C87.3241325,160.216513 88.3302513,161.044192 89.3774361,161.773337 C91.5311236,163.426232 94.0840645,164.44605 97.0955765,164.71948 L101.220435,164.71948 C107.343843,162.950809 111.220024,158.873998 112.718936,152.619604 L112.718936,152.617141 C112.755439,152.476731 112.810194,152.353565 112.842134,152.210692 C114.345609,145.956297 112.842134,140.110816 108.21992,135.625093 C104.34602,131.816785 100.595319,127.737511 97.0955765,123.931666 C85.9712335,112.23824 74.4727329,100.682761 63.4738696,88.9893345 C59.59997,84.7745773 54.7245145,83.5503025 49.7235793,85.1834901 C44.5926016,86.2722818 40.673073,89.7578933 38.8182553,94.9382757 C38.5399186,95.6846646 38.2980851,96.4630768 38.1018805,97.2833656 C36.2265298,103.535296 37.7254415,109.247758 42.3499377,113.871428 C56.848543,128.961786 71.8490671,144.325573 86.3453911,159.280448 M174.402471,90.5648719 C176.588269,86.4871092 177.525311,81.9558058 176.588269,77.4245024 C175.200762,70.9743725 171.490608,66.6913878 165.997602,64.8669636 C164.973128,64.4380494 163.901137,64.0707019 162.739813,63.8326443 C157.013022,62.4740742 150.660902,65.8704995 147.119909,71.7624253 C143.267202,77.9909153 140.142462,84.9007426 136.291655,91.1312848 C134.417571,94.3019659 132.127235,96.6825419 129.939536,99.0610658 C127.440123,101.437537 123.899131,102.570363 120.360038,102.231747 C119.327961,102.047047 118.352905,101.772049 117.398757,101.456007 C113.747524,99.9599385 110.512543,97.4993258 107.446723,94.4168902 C102.345261,89.2063017 97.2418971,83.9957132 92.1404344,78.7851247 C77.7711877,64.1733129 63.5045785,49.3337047 49.1353319,34.7218929 C47.5520538,33.1006385 45.7539972,31.9965437 43.8761116,31.3706164 C39.0198384,29.1870535 33.3994862,30.4224904 29.5581836,34.9496894 C24.7684347,40.4988943 25.0801485,49.1059082 30.4952258,54.6592175 C39.7630097,64.3990572 48.9262555,73.6874084 58.1940395,83.4293003 C67.7735373,93.1711922 77.3530351,103.138828 86.5181816,112.878668 C92.5566864,119.10921 98.597092,124.999084 104.323883,131.570295 M54.3752088,211.404651 C57.4556547,222.555841 65.5687322,231.12968 74.2682087,234.421442 C82.633163,237.891748 92.2468733,238.010776 100.887428,233.850925 C113.903381,227.622435 126.398543,220.712608 139.102782,214.143449 C157.845525,204.403609 165.239225,181.63422 156.285056,161.132535 C153.36749,154.563376 150.556364,148.332834 147.6426,141.761623 C147.017272,140.743722 147.017272,140.062384 147.6426,139.044483 C156.59677,122.848357 165.448302,106.535254 174.402471,90.5648719 M65.4082735,181.32837 C66.1709085,182.054384 66.9485813,182.689935 67.7455885,183.26054 C69.7348842,184.807667 71.8509276,185.663574 74.1517221,185.874652 C74.4997414,185.93264 74.8133885,186.03238 75.1764457,186.064853 C79.7672932,186.352475 83.9585631,184.192991 86.8114623,180.500298 C87.8598168,179.238473 88.7234203,177.807322 89.299156,176.206846 C91.7696636,169.934833 90.3582518,163.275459 85.299082,158.156254 C71.8810034,144.457102 58.2287636,130.375228 44.9288398,116.676077 C41.7515522,113.475124 38.103794,110.786787 31.6289159,110.786787 C27.1025163,111.155593 22.5975995,114.154746 20.1657607,119.392248 C20.0261233,119.645077 19.8757446,119.870071 19.742552,120.134498 C17.2698962,126.023788 18.6834561,132.678523 22.5675237,137.417325 C24.3333996,139.337897 26.2174301,141.386043 28.3334736,143.306615 C40.5743016,155.85064 53.1674455,168.782026 65.4082735,181.32837 Z" stroke="#FFFFFF" stroke-width="3"/>
  </g>
</svg>