<?xml version="1.0" encoding="UTF-8" standalone="no"?>
<svg width="65px" height="42px" viewBox="0 0 65 42" version="1.1" xmlns="http://www.w3.org/2000/svg" xmlns:xlink="http://www.w3.org/1999/xlink">
    <!-- Generator: Sketch 3.8.1 (29687) - http://www.bohemiancoding.com/sketch -->
    <title>Logo</title>
    <desc>Created with Sketch.</desc>
    <defs/>
    <g id="Homepage" stroke="none" stroke-width="1" fill="none" fill-rule="evenodd">
        <g transform="translate(-686.000000, -66.000000)" id="Hero" fill="#F1493F">
            <g transform="translate(-1.000000, 0.000000)">
                <g id="Header" transform="translate(72.000000, 54.000000)">
                    <g id="Logo" transform="translate(615.000000, 12.000000)">
                        <path d="M28.3797858,27.4629328 C30.5324733,29.6412549 35.3444986,27.3663754 35.3444986,27.3663754 C35.3444986,27.3663754 34.8410219,28.6395447 34.0827774,30.5547915 C33.1084274,33.0713534 30.5024666,36.3748289 27.8483221,35.8350906 C25.5444474,35.3676259 27.1474941,30.2656976 28.3797858,27.4629328 M31.8634406,21.6949323 C32.6695803,21.1881508 35.7089061,20.4177157 36.1428482,24.4014289 C36.1428482,24.4014289 33.588245,26.4626681 31.5426004,24.552625 C30.3114629,23.3890223 31.0913468,22.1797427 31.8634406,21.6949323 M64.9474856,9.60242568 C64.7642721,8.266523 62.0007765,1.39013671 53.0166749,3.13684175 C49.162265,3.92115336 44.0002584,6.30010664 36.157563,10.5914157 C28.8226722,14.6054838 23.1551692,16.2004146 18.85845,16.4660918 C20.3642637,14.0987023 22.110419,11.7177254 23.888312,9.46279335 C26.8520442,5.70254966 19.0009815,3.44501579 19.0009815,3.44501579 C19.0009815,3.44501579 16.7865497,6.63227548 11.2976438,15.2409121 C10.057562,14.6534734 9.12735634,13.9310279 8.46692187,13.2265062 C6.59035315,11.2242422 4.90998165,8.65390876 8.24216064,4.50541203 C11.5731855,0.356915292 2.41769988,-3.39176465 0.322140431,5.14893494 C-0.526412553,9.26707682 0.352147065,12.3863994 2.36114891,14.6031711 C4.32687196,16.7707968 6.54476614,18.1899585 8.95337557,19.0118523 C3.33001696,28.8254321 3.64999155,38.3947276 12.0255932,40.5293966 C16.4178143,41.7120795 22.5908136,33.1621289 22.5908136,33.1621289 C22.5908136,33.1621289 20.4098507,40.4134699 26.1411178,41.5276376 C30.1233443,42.3015419 34.7452315,33.0357949 34.7452315,33.0357949 C35.7464144,31.2830189 37.0805555,27.8468494 37.5944191,26.4719191 C39.0540688,25.778672 40.0480385,24.9272906 40.0480385,24.9272906 C40.0480385,24.9272906 38.0142235,33.6287264 43.1459349,36.7015049 C49.1109075,40.2732594 53.5507353,33.214744 54.8508304,30.7938721 C55.1070409,30.3171563 55.0978081,29.9416234 54.8338074,29.7652762 C54.5882723,29.6016491 53.582473,28.9838555 53.582473,28.9838555 C53.582473,28.9838555 50.397442,36.0802422 46.4758057,33.4474645 C43.1534366,31.2165273 46.5635174,24.4557786 47.5029559,22.405525 C47.6731858,22.0351958 47.3936048,21.6368244 47.202601,21.4943012 C46.1494836,20.7088332 44.3969808,19.574718 43.6615297,18.8271213 C43.2313384,18.3903005 42.7760455,18.348671 42.4768447,18.7649661 C41.4987439,20.1234181 39.2384364,23.1158286 37.7389703,23.942637 C37.4867992,20.9849178 35.570991,18.9705119 32.6358229,18.6961618 C30.4923682,18.4955307 26.6924897,19.3792906 24.6058745,25.2074226 C23.227012,30.3691932 20.7762779,33.2199477 18.4158522,35.0510681 C16.0542724,36.8818995 12.5688864,36.2837643 14.5046028,26.0966752 C14.8750694,24.1470263 15.7397798,22.0039736 16.9132123,19.7895147 C21.9070086,19.2983443 27.3408061,17.2842274 32.8660661,14.5838018 C32.8660661,14.5838018 44.8799722,9.21417264 52.8447138,7.16420816 C58.4325838,5.72625535 60.9052458,7.85427518 61.5134572,11.9923645 C62.0111634,15.3796772 58.8163225,17.2067503 55.9316463,17.2050157 C55.7039998,17.2050157 55.4671205,17.2096412 55.2311068,17.2139776 C54.9873029,17.1743718 54.7740826,17.1130839 54.6024101,17.0283794 C52.118207,15.8003087 54.3404291,13.9943394 53.1796917,12.2794347 C52.3089223,10.9918107 50.6282622,10.1728078 48.739864,10.7810613 C48.7023557,10.792336 48.6631162,10.8007197 48.6253194,10.8131507 C48.0012391,11.0279475 47.3687916,11.4089731 46.8139574,11.8934944 C46.8119377,11.8943617 46.8104951,11.8963854 46.8081869,11.8978308 L46.8084754,11.8986981 C45.1624384,13.33694 44.2786854,15.5785737 46.0874506,17.2420197 C50.0214935,20.8597402 58.6792729,21.786286 63.2010418,15.3117401 C64.6655964,13.2140751 65.1768633,11.2733881 64.9474856,9.60242568" id="LOGO"/>
                    </g>
                </g>
            </g>
        </g>
    </g>
</svg>