<svg width="390px" height="287px" viewBox="729 928 390 287" version="1.1" xmlns="http://www.w3.org/2000/svg" xmlns:xlink="http://www.w3.org/1999/xlink">
    <!-- Generator: Sketch 3.8.3 (29802) - http://www.bohemiancoding.com/sketch -->
    <desc>Created with Sketch.</desc>
    <defs/>
    <g id="Digital-Marketing" stroke="none" stroke-width="1" fill="none" fill-rule="evenodd" transform="translate(731.000000, 930.000000)" stroke-linecap="square">
        <path d="M65.5,235.5 L65.5,181.96263" id="Line" stroke="#ECECEC" stroke-width="3"/>
        <path d="M102.5,235.5 L102.5,146.949167" id="Line" stroke="#ECECEC" stroke-width="3"/>
        <path d="M139.5,235.5 L139.5,114.933628" id="Line" stroke="#ECECEC" stroke-width="3"/>
        <path d="M176.5,235.5 L176.5,149.976611" id="Line" stroke="#ECECEC" stroke-width="3"/>
        <path d="M213.5,235.5 L213.5,183.912695" id="Line" stroke="#ECECEC" stroke-width="3"/>
        <path d="M250.5,235.5 L250.5,146.887078" id="Line" stroke="#ECECEC" stroke-width="3"/>
        <path d="M287.5,235.5 L287.5,109.936271" id="Line" stroke="#ECECEC" stroke-width="3"/>
        <path d="M140.477142,67.5197099 L213.27235,140.314918" id="Line" stroke="#F1494C" stroke-width="3"/>
        <path d="M341.074574,36 L9.88176346,36" id="Line" stroke="#ECECEC" stroke-width="3"/>
        <path d="M320.5,16.1235231 L320.5,281.618237" id="Line" stroke="#ECECEC" stroke-width="3"/>
        <path d="M213.999107,141.0009 L353.54422,1.45578492" id="Line" stroke="#F1494C" stroke-width="3"/>
        <path d="M331.118237,269.5 L10.985943,269.5" id="Line" stroke="#ECECEC" stroke-width="3"/>
        <path d="M346.049726,238.5 L362.469726,238.5" id="Line" stroke="#ECECEC" stroke-width="3"/>
        <path d="M346.463602,103.5 L363.083603,103.5" id="Line" stroke="#ECECEC" stroke-width="3"/>
        <path d="M354.5,104.5 L354.5,237.466156" id="Line" stroke="#ECECEC" stroke-width="3"/>
        <path d="M374,165 L385.4622,176.4622" id="Line" stroke="#ECECEC" stroke-width="3"/>
        <path d="M385.4622,165 L374,176.4622" id="Line" stroke="#ECECEC" stroke-width="3"/>
        <path d="M0.5,149.5 L69.5289764,80.4710206" id="Line" stroke="#ECECEC" stroke-width="3"/>
        <path d="M69.5,80.5 L60,80.5" id="Line" stroke="#ECECEC" stroke-width="3"/>
        <path d="M70.5,80.5 L70.5,91" id="Line" stroke="#ECECEC" stroke-width="3"/>
        <path d="M354.5,1.5 L354.5,46.5" id="Line" stroke="#F1494C" stroke-width="3"/>
        <path d="M355,2.13162821e-14 L310,0" id="Line" stroke="#F1494C" stroke-width="3"/>
        <path d="M23.5,23.5 L23.5,282.708405" id="Line" stroke="#ECECEC" stroke-width="3"/>
        <path d="M24.1850493,179.888428 L139.073474,65" id="Line" stroke="#F1494C" stroke-width="3"/>
    </g>
</svg>